<svg width="24" height="24" viewBox="0 0 24 24" fill="none" xmlns="http://www.w3.org/2000/svg">
<path fill-rule="evenodd" clip-rule="evenodd" d="M12.0001 10.8001C12.9549 10.8001 13.8706 10.4208 14.5457 9.74568C15.2208 9.07055 15.6001 8.15488 15.6001 7.2001C15.6001 6.24532 15.2208 5.32964 14.5457 4.65451C13.8706 3.97938 12.9549 3.6001 12.0001 3.6001C11.0453 3.6001 10.1296 3.97938 9.45451 4.65451C8.77938 5.32964 8.4001 6.24532 8.4001 7.2001C8.4001 8.15488 8.77938 9.07055 9.45451 9.74568C10.1296 10.4208 11.0453 10.8001 12.0001 10.8001ZM6.89875 21.6001C5.07696 21.6001 3.54234 20.0687 4.23951 18.3856C4.66165 17.3664 5.28039 16.4404 6.0604 15.6604C6.84041 14.8804 7.76642 14.2616 8.78556 13.8395C9.80469 13.4174 10.897 13.2001 12.0001 13.2001C13.1032 13.2001 14.1955 13.4174 15.2146 13.8395C16.2338 14.2616 17.1598 14.8804 17.9398 15.6604C18.7198 16.4404 19.3385 17.3664 19.7607 18.3856C20.4579 20.0687 18.9232 21.6001 17.1014 21.6001H6.89875Z" fill="#6A4029"/>
</svg>
